<svg xmlns="http://www.w3.org/2000/svg" version="1.1" xmlns:xlink="http://www.w3.org/1999/xlink" width="25" height="25" x="0" y="0" viewBox="0 0 64 64" style="enable-background:new 0 0 512 512" xml:space="preserve" class=""><g><g fill="#231f20"><path d="M51 52.5c.827 0 1.5-.673 1.5-1.5V31.65h-1V51a.5.5 0 0 1-.5.5H40.67v1zM11.5 31.65V51c0 .827.673 1.5 1.5 1.5h10.33v-1H13a.5.5 0 0 1-.5-.5V31.65zM32 19.5c-8.086 0-14.664 6.578-14.664 14.664 0 6.285 8.805 19.748 12.59 25.244a2.517 2.517 0 0 0 4.148 0c3.785-5.497 12.59-18.959 12.59-25.244C46.664 26.078 40.086 19.5 32 19.5zm1.25 39.341c-.576.838-1.924.838-2.5 0-3.732-5.419-12.414-18.673-12.414-24.677C18.336 26.63 24.466 20.5 32 20.5s13.664 6.13 13.664 13.664c0 6.004-8.682 19.257-12.414 24.677z" fill="#231f20" opacity="1" data-original="#231f20" class=""></path><path d="M32 25.5c-4.777 0-8.664 3.887-8.664 8.664s3.887 8.664 8.664 8.664 8.664-3.886 8.664-8.664S36.777 25.5 32 25.5zm0 16.328c-4.226 0-7.664-3.438-7.664-7.664S27.774 26.5 32 26.5s7.664 3.438 7.664 7.664-3.438 7.664-7.664 7.664z" fill="#231f20" opacity="1" data-original="#231f20" class=""></path><path d="M8.312 33.224 32 9.536l23.688 23.688a2.497 2.497 0 0 0 3.535 0 2.503 2.503 0 0 0 0-3.536L33.768 4.232a2.502 2.502 0 0 0-3.535 0L4.776 29.688a2.503 2.503 0 0 0 0 3.536c.946.945 2.592.943 3.536 0zm-2.829-2.829L30.939 4.939a1.501 1.501 0 0 1 2.121 0l25.456 25.456a1.502 1.502 0 0 1 0 2.122c-.566.567-1.555.566-2.121 0L32.354 8.475a.5.5 0 0 0-.707 0L7.604 32.517c-.565.567-1.554.567-2.121 0a1.502 1.502 0 0 1 0-2.122z" fill="#231f20" opacity="1" data-original="#231f20" class=""></path><path d="m35.182 30.275-4.596 4.596-1.769-1.768a1.5 1.5 0 0 0-2.121 2.122l2.829 2.828c.58.584 1.532.586 2.121.001l5.656-5.657a1.503 1.503 0 0 0 0-2.122 1.503 1.503 0 0 0-2.12 0zm1.414 1.414-5.655 5.656a.501.501 0 0 1-.706.002l-.001-.001-2.83-2.829a.5.5 0 0 1 .708-.707l2.121 2.121a.5.5 0 0 0 .707 0l4.948-4.948a.5.5 0 1 1 .708.706z" fill="#231f20" opacity="1" data-original="#231f20" class=""></path></g></g></svg>