<svg xmlns="http://www.w3.org/2000/svg" version="1.1" xmlns:xlink="http://www.w3.org/1999/xlink" width="30" height="30" x="0" y="0" viewBox="0 0 512 512" style="enable-background:new 0 0 512 512" xml:space="preserve" fill-rule="evenodd" class=""><g><path d="M331.81 438.59H180.19c-11.71 0-21.23-9.52-21.23-21.23 0-56.03-13.7-77.8-26.95-98.84-12.19-19.36-23.7-37.64-23.7-77.95 0-81.43 66.25-147.68 147.69-147.68s147.69 66.25 147.69 147.68c0 40.3-11.51 58.59-23.7 77.94-13.25 21.05-26.95 42.82-26.95 98.85 0 11.7-9.52 21.23-21.23 21.23zM256 104.89c-74.82 0-135.69 60.87-135.69 135.68 0 36.84 10.13 52.93 21.86 71.55 13.49 21.44 28.79 45.74 28.79 105.24 0 5.09 4.14 9.23 9.23 9.23h151.62c5.09 0 9.23-4.14 9.23-9.23 0-59.5 15.3-83.8 28.8-105.24 11.72-18.63 21.85-34.71 21.85-71.55 0-74.81-60.87-135.68-135.69-135.68z" fill="#000000" opacity="1" data-original="#000000" class=""></path><path d="M317.33 474.13H194.67c-8.04 0-14.58-6.54-14.58-14.58v-26.96c0-3.32 2.68-6 6-6h139.82c3.32 0 6 2.68 6 6v26.97c0 8.03-6.54 14.57-14.58 14.57zm-125.24-35.54v20.97c0 1.39 1.18 2.57 2.58 2.57h122.66c1.4 0 2.58-1.18 2.58-2.58v-20.96z" fill="#000000" opacity="1" data-original="#000000" class=""></path><path d="M266.88 512.04h-21.75c-13.76 0-24.96-11.19-24.96-24.95v-18.96c0-3.31 2.69-6 6-6h59.66c3.31 0 6 2.69 6 6v18.96c0 13.76-11.19 24.95-24.95 24.95zm-34.71-37.91v12.96c0 7.14 5.81 12.95 12.96 12.95h21.75c7.14 0 12.95-5.81 12.95-12.95v-12.96zM256 57.32c-3.31 0-6-2.68-6-6V5.96c0-3.32 2.69-6 6-6 3.32 0 6 2.68 6 6v45.36c0 3.32-2.68 6-6 6zM363.2 86.05c-1.02 0-2.05-.26-2.99-.8a6.012 6.012 0 0 1-2.2-8.2l22.68-39.29a6 6 0 0 1 8.2-2.19c2.87 1.65 3.85 5.32 2.2 8.19l-22.68 39.29c-1.12 1.92-3.13 3-5.21 3zM441.7 164.53a5.99 5.99 0 0 1-5.21-3 6.012 6.012 0 0 1 2.2-8.2l39.29-22.68a5.99 5.99 0 0 1 8.19 2.2 6 6 0 0 1-2.19 8.2l-39.29 22.68c-.94.54-1.98.8-2.99.8zM70.31 164.53c-1.02 0-2.05-.26-3-.8l-39.28-22.68c-2.88-1.66-3.86-5.33-2.2-8.2s5.33-3.86 8.2-2.2l39.28 22.68c2.87 1.66 3.86 5.33 2.2 8.2-1.11 1.93-3.13 3-5.2 3zM148.8 86.05c-2.07 0-4.09-1.08-5.2-3l-22.69-39.29c-1.65-2.87-.67-6.54 2.2-8.19a6 6 0 0 1 8.2 2.19l22.68 39.29c1.66 2.87.67 6.54-2.2 8.2-.94.54-1.97.8-2.99.8zM247.81 389.65a5.985 5.985 0 0 1-6-6V292.4h-56.18c-2.16 0-4.16-1.16-5.22-3.03a6.01 6.01 0 0 1 .06-6.04l82.75-138.58a5.993 5.993 0 0 1 6.75-2.71c2.6.72 4.4 3.08 4.4 5.78v91.64h52.01a5.97 5.97 0 0 1 5.18 2.98 5.972 5.972 0 0 1 .03 5.98l-78.57 138.2a5.977 5.977 0 0 1-5.21 3.03zM196.2 280.4h51.61c3.31 0 6 2.69 6 6v74.55l62.25-109.49h-47.69c-3.31 0-6-2.69-6-6v-75.88z" fill="#000000" opacity="1" data-original="#000000" class=""></path></g></svg>