<svg xmlns="http://www.w3.org/2000/svg" version="1.1" xmlns:xlink="http://www.w3.org/1999/xlink" width="20" height="20" x="0" y="0" viewBox="0 0 48 48" style="enable-background:new 0 0 512 512" xml:space="preserve" class=""><g><path d="M40.4 16.9c0-4.6-2-9.1-5.5-12.2C31.9 2 28.1.5 24 .5c-.6 0-1.3 0-1.9.1C14.6 1.4 8.5 7.5 7.7 15c-.6 5.6 1.6 11 6 14.5.7.5 1.2 1.1 1.7 1.8h17.1c.5-.7 1.1-1.3 1.7-1.8 4-3.1 6.2-7.7 6.2-12.6zm-19.5 8.2-7.8-7.8 1.4-1.4 6.4 6.4L33.5 9.7l1.4 1.4zM17.5 38.4v2.5c0 .4.4.8.8.8h11.4c.4 0 .8-.4.8-.8v-2.5zM17.5 36.4h13.1c.1-1.1.4-2.1.8-3H16.6c.5.9.7 1.9.9 3zM19.7 43.6c.2 2.2 2.1 3.9 4.3 3.9s4.1-1.7 4.3-3.9z" fill="#000000" opacity="1" data-original="#000000" class=""></path></g></svg>