<svg xmlns="http://www.w3.org/2000/svg" version="1.1" xmlns:xlink="http://www.w3.org/1999/xlink" width="20" height="20" x="0" y="0" viewBox="0 0 512 512" style="enable-background:new 0 0 512 512" xml:space="preserve" class=""><g><path d="M301 463.5c-15.854 0-31.346-4.129-45-11.965-13.654 7.836-29.146 11.965-45 11.965a90.449 90.449 0 0 1-59.396-22.218c-15.369-13.38-25.761-31.505-29.523-51.362-19.858-3.763-37.983-14.155-51.363-29.523A90.453 90.453 0 0 1 48.5 301c0-15.854 4.128-31.346 11.965-45-7.836-13.654-11.965-29.146-11.965-45a90.449 90.449 0 0 1 22.218-59.396c13.379-15.369 31.505-25.761 51.363-29.523 3.763-19.858 14.155-37.983 29.523-51.363A90.45 90.45 0 0 1 211 48.5c15.854 0 31.346 4.128 45 11.965 13.654-7.837 29.146-11.965 45-11.965a90.449 90.449 0 0 1 59.396 22.218c15.368 13.379 25.761 31.505 29.523 51.363 19.857 3.763 37.982 14.155 51.362 29.523A90.44 90.44 0 0 1 463.5 211c0 15.854-4.129 31.346-11.965 45 7.836 13.654 11.965 29.146 11.965 45a90.449 90.449 0 0 1-22.218 59.396c-13.38 15.368-31.505 25.761-51.362 29.523-3.763 19.857-14.155 37.982-29.523 51.362A90.447 90.447 0 0 1 301 463.5zm-35.501-18.232A80.406 80.406 0 0 0 301 453.5c37.429 0 70.047-26.326 78.414-62.225a92.146 92.146 0 0 1-6.414.225c-23.652 0-51.746-19.031-76.37-41.102 3.24 8.183 4.87 15.732 4.87 22.602 0 28.755-13.315 55.205-36.001 72.268zm-132.913-53.993C140.953 427.174 173.572 453.5 211 453.5a80.406 80.406 0 0 0 35.501-8.232C223.816 428.205 210.5 401.755 210.5 373c0-6.869 1.63-14.419 4.87-22.602C190.746 372.469 162.653 391.5 139 391.5c-2.137 0-4.28-.075-6.414-.225zm109.258-66.835C227.68 343.776 220.5 360.112 220.5 373c0 27.012 13.211 51.738 35.5 66.76 22.289-15.021 35.5-39.748 35.5-66.76 0-12.888-7.181-29.224-21.343-48.56A470.69 470.69 0 0 1 256 308.752a471.687 471.687 0 0 1-14.156 15.688zm36.008-6.416C300.358 341.839 342.436 381.5 373 381.5c2.702 0 5.413-.135 8.098-.402A81.66 81.66 0 0 0 381.5 373c0-30.564-39.661-72.643-63.476-95.148-5.785-4.261-11.819-9.125-17.987-14.498a471.114 471.114 0 0 0-19.196 17.487 471.795 471.795 0 0 0-17.487 19.196c5.373 6.168 10.237 12.202 14.498 17.987zm-146.949 63.074a81.66 81.66 0 0 0 8.098.402c30.565 0 72.643-39.661 95.148-63.476 4.261-5.785 9.126-11.819 14.499-17.987a470.553 470.553 0 0 0-17.488-19.196 471.114 471.114 0 0 0-19.196-17.487c-6.167 5.373-12.203 10.237-17.987 14.498C170.161 300.357 130.5 342.436 130.5 373c0 2.702.135 5.413.403 8.098zm219.496-84.468c22.07 24.624 41.102 52.718 41.102 76.37 0 2.138-.075 4.28-.225 6.414C427.174 371.047 453.5 338.429 453.5 301a80.406 80.406 0 0 0-8.232-35.501C428.205 288.185 401.755 301.5 373 301.5c-6.869 0-14.419-1.63-22.601-4.87zM66.733 265.499A80.393 80.393 0 0 0 58.5 301c0 37.429 26.327 70.047 62.225 78.414A91.532 91.532 0 0 1 120.5 373c0-23.652 19.031-51.746 41.102-76.37-8.183 3.24-15.732 4.87-22.602 4.87-28.754 0-55.204-13.315-72.267-36.001zm171.498 8.27c6.294 6.062 12.252 12.126 17.769 18.086 5.517-5.96 11.476-12.024 17.769-18.086 6.062-6.293 12.126-12.252 18.086-17.769-5.96-5.517-12.024-11.475-18.086-17.769-6.293-6.061-12.252-12.126-17.769-18.086a443.153 443.153 0 0 1-17.769 18.086A443.153 443.153 0 0 1 220.145 256c5.96 5.517 12.025 11.476 18.086 17.769zm86.21-3.612C343.777 284.319 360.113 291.5 373 291.5c27.012 0 51.738-13.211 66.76-35.5-15.021-22.289-39.748-35.5-66.76-35.5-12.888 0-29.224 7.18-48.56 21.343A471.826 471.826 0 0 1 308.752 256a470.52 470.52 0 0 1 15.689 14.157zM72.241 256c15.021 22.289 39.748 35.5 66.759 35.5 12.887 0 29.224-7.181 48.56-21.343A470.86 470.86 0 0 1 203.247 256a471.997 471.997 0 0 1-15.687-14.157C168.224 227.68 151.887 220.5 139 220.5c-27.011 0-51.738 13.211-66.759 35.5zm208.6-24.841a471.989 471.989 0 0 0 19.196 17.488c6.168-5.373 12.202-10.237 17.987-14.499C341.839 211.643 381.5 169.565 381.5 139c0-2.702-.135-5.413-.402-8.098A81.964 81.964 0 0 0 373 130.5c-30.564 0-72.643 39.661-95.148 63.476-4.261 5.784-9.125 11.819-14.498 17.987a471.114 471.114 0 0 0 17.487 19.196zm-86.865 2.989c5.784 4.261 11.819 9.126 17.987 14.499a470.553 470.553 0 0 0 19.196-17.488 471.307 471.307 0 0 0 17.488-19.196c-5.373-6.167-10.237-12.203-14.499-17.987C211.643 170.161 169.565 130.5 139 130.5c-2.702 0-5.413.135-8.098.402A81.964 81.964 0 0 0 130.5 139c0 30.565 39.661 72.643 63.476 95.148zM373 210.5c28.755 0 55.205 13.315 72.268 36.001A80.406 80.406 0 0 0 453.5 211c0-37.429-26.326-70.047-62.225-78.414.149 2.134.225 4.276.225 6.414 0 23.653-19.031 51.746-41.102 76.37 8.183-3.24 15.733-4.87 22.602-4.87zm-252.275-77.914C84.827 140.953 58.5 173.571 58.5 211a80.406 80.406 0 0 0 8.232 35.501C83.796 223.815 110.246 210.5 139 210.5c6.869 0 14.419 1.63 22.602 4.87C139.531 190.746 120.5 162.653 120.5 139c0-2.138.075-4.28.225-6.414zm121.119 54.974a471.997 471.997 0 0 1 14.157 15.687 470.86 470.86 0 0 1 14.157-15.687C284.32 168.224 291.5 151.887 291.5 139c0-27.012-13.211-51.738-35.5-66.759-22.289 15.021-35.5 39.748-35.5 66.759 0 12.887 7.18 29.224 21.344 48.56zm23.655-120.828C288.185 83.795 301.5 110.246 301.5 139c0 6.869-1.63 14.419-4.87 22.602C321.254 139.531 349.348 120.5 373 120.5c2.138 0 4.28.075 6.414.225C371.047 84.827 338.429 58.5 301 58.5a80.406 80.406 0 0 0-35.501 8.232zM139 120.5c23.653 0 51.746 19.031 76.37 41.102-3.239-8.183-4.87-15.732-4.87-22.602 0-28.754 13.315-55.205 36.001-72.268A80.406 80.406 0 0 0 211 58.5c-37.429 0-70.047 26.327-78.414 62.225A91.554 91.554 0 0 1 139 120.5z" fill="#000000" opacity="1" data-original="#000000" class=""></path></g></svg>