<svg xmlns="http://www.w3.org/2000/svg" version="1.1" xmlns:xlink="http://www.w3.org/1999/xlink" width="25" height="25" x="0" y="0" viewBox="0 0 512 512" style="enable-background:new 0 0 512 512" xml:space="preserve"><g><path d="M256 53.055c-80.229 0-145.5 65.271-145.5 145.5s65.271 145.5 145.5 145.5 145.5-65.271 145.5-145.5-65.271-145.5-145.5-145.5zm0 275c-71.407 0-129.5-58.094-129.5-129.5s58.093-129.5 129.5-129.5 129.5 58.093 129.5 129.5c0 71.406-58.093 129.5-129.5 129.5zM256 0C146.517 0 57.445 89.071 57.445 198.555c0 40.627 17.934 87.164 54.825 142.271 31.307 46.765 70.709 91.669 105.474 131.287 11.522 13.131 22.405 25.533 32.147 37.054a8 8 0 0 0 12.216 0c9.743-11.521 20.625-23.923 32.147-37.054 34.764-39.618 74.167-84.522 105.474-131.287 36.892-55.106 54.825-101.644 54.825-142.271C454.555 89.071 365.483 0 256 0zm130.434 331.924c-30.727 45.897-69.763 90.385-104.205 129.636-9.228 10.516-18.047 20.567-26.229 30.105-8.183-9.538-17.002-19.59-26.229-30.105-34.441-39.251-73.478-83.738-104.205-129.636-35.072-52.388-52.121-96.013-52.121-133.369C73.445 97.894 155.339 16 256 16s182.555 81.894 182.555 182.555c0 37.356-17.049 80.981-52.121 133.369zM348.025 167.1l-79.055-57.437c-7.617-5.728-17.907-5.819-25.645-.214l-79.342 57.645c-9.638 6.984-11.798 20.508-4.813 30.147a21.444 21.444 0 0 0 14.077 8.651c1.152.184 2.305.275 3.45.275 2.812 0 5.576-.55 8.16-1.617v59.797c0 15.124 12.305 27.429 27.429 27.429h87.43c15.124 0 27.429-12.305 27.429-27.429v-59.823a21.425 21.425 0 0 0 11.61 1.368 21.443 21.443 0 0 0 14.077-8.651c6.982-9.638 4.823-23.162-4.807-30.141zm-81.192 108.675h-21.666v-57.177c0-.607.532-1.14 1.139-1.14h19.387c.607 0 1.14.533 1.14 1.14zm32.882 0h-16.882v-57.177c0-9.451-7.689-17.14-17.14-17.14h-19.387c-9.451 0-17.139 7.689-17.139 17.14v57.177h-16.882c-6.302 0-11.429-5.127-11.429-11.429V193.67L256 153.607l55.144 40.064v70.676c0 6.301-5.127 11.428-11.429 11.428zm40.16-87.922a5.55 5.55 0 0 1-3.644 2.239 5.544 5.544 0 0 1-4.152-.987l-71.377-51.858c-1.402-1.019-3.052-1.528-4.702-1.528s-3.3.509-4.702 1.528L179.929 189.1a5.55 5.55 0 0 1-4.159.993 5.55 5.55 0 0 1-3.644-2.239 5.596 5.596 0 0 1 1.254-7.809l79.341-57.645c1.978-1.434 4.713-1.404 6.653.067l.132.098 79.122 57.486a5.593 5.593 0 0 1 1.247 7.802z" fill="#000000" opacity="1" data-original="#000000"></path></g></svg>