<svg xmlns="http://www.w3.org/2000/svg" version="1.1" xmlns:xlink="http://www.w3.org/1999/xlink" width="80" height="80" x="0" y="0" viewBox="0 0 512 512" style="enable-background:new 0 0 512 512" xml:space="preserve" class=""><g><linearGradient id="a" x1="209.29" x2="423.87" y1="235.57" y2="450.16" gradientUnits="userSpaceOnUse"><stop offset="0" stop-color="#a1001f"></stop><stop offset="1" stop-color="#ff335a"></stop></linearGradient><g data-name="77"><circle cx="256" cy="256" r="256" fill="#ff335a" opacity="1" data-original="#ff335a" class=""></circle><path fill="url(#a)" d="M509.75 290.06C493.09 415.34 385.83 512 256 512c-5.65 0-11.25-.18-16.81-.55L119.42 391.68l11.28-40.45 49.27-27.8 93.1 93.1 18.1-4.83-49.97-49.98 51.71-81.12c93.45-58.22 39.36-168.01 39.36-168.01z" opacity="1" data-original="url(#a)"></path><g fill="#fff"><path d="M319.23 188.87c0-34.92-28.31-63.23-63.23-63.23s-63.23 28.31-63.23 63.23S221.08 252.1 256 252.1s63.23-28.31 63.23-63.23zm-99.88 26.87c0-4.48 3.63-8.1 8.1-8.1h27.14V178.2l-8 8c-3.16 3.16-8.29 3.16-11.46 0-3.16-3.16-3.16-8.29 0-11.46l21.84-21.84c1.47-1.47 3.49-2.37 5.73-2.37s4.26.91 5.73 2.37l21.84 21.84c3.16 3.16 3.16 8.3 0 11.46s-8.29 3.16-11.46 0l-8-8v37.55c0 4.48-3.63 8.1-8.1 8.1h-35.25c-4.48 0-8.1-3.63-8.1-8.1z" fill="#ffffff" opacity="1" data-original="#ffffff"></path><path d="M272.79 359.45c30.32-40.04 91.08-125.87 91.08-170.58C363.87 129.3 315.58 81 256 81s-107.87 48.29-107.87 107.87c0 44.71 60.77 130.55 91.08 170.58 8.42 11.12 25.15 11.12 33.57 0zM172.26 188.87c0-46.25 37.49-83.74 83.74-83.74s83.74 37.49 83.74 83.74-37.49 83.74-83.74 83.74-83.74-37.49-83.74-83.74z" fill="#ffffff" opacity="1" data-original="#ffffff"></path><path d="M347.07 318.08c-5.54-1.87-11.65.26-14.89 5.13l-.15.23c-4.6 6.9-1.62 16.26 6.1 19.29 17.06 6.69 27.43 15.47 27.43 25.07 0 20.91-49.14 37.93-109.55 37.93s-109.55-17.01-109.55-37.93c0-9.6 10.36-18.38 27.41-25.07 7.73-3.03 10.71-12.39 6.11-19.29-.05-.08-.1-.15-.15-.23-3.24-4.86-9.34-7-14.88-5.13-34.35 11.58-56.42 29.54-56.42 49.72 0 34.9 66.03 63.21 147.48 63.21s147.48-28.3 147.48-63.21c0-20.18-22.06-38.14-56.41-49.72z" fill="#ffffff" opacity="1" data-original="#ffffff"></path></g></g></g></svg>