<svg xmlns="http://www.w3.org/2000/svg" version="1.1" xmlns:xlink="http://www.w3.org/1999/xlink" width="20" height="20" x="0" y="0" viewBox="0 0 512 512" style="enable-background:new 0 0 512 512" xml:space="preserve" class=""><g><path d="M452 76H60c-33.084 0-60 26.916-60 60v240c0 33.084 26.916 60 60 60h392c33.084 0 60-26.916 60-60V136c0-33.084-26.916-60-60-60zm-7.892 40L270.267 292.942c-3.735 3.802-8.936 5.983-14.267 5.983s-10.531-2.181-14.267-5.983L67.893 116zM472 376c0 11.028-8.972 20-20 20H60c-11.028 0-20-8.972-20-20V144.685l173.2 176.289c11.207 11.408 26.808 17.951 42.8 17.951s31.593-6.543 42.8-17.95L472 144.686z" fill="#000000" opacity="1" data-original="#000000" class=""></path></g></svg>