<svg xmlns="http://www.w3.org/2000/svg" version="1.1" xmlns:xlink="http://www.w3.org/1999/xlink" width="80" height="80" x="0" y="0" viewBox="0 0 32 32" style="enable-background:new 0 0 512 512" xml:space="preserve" class=""><g><linearGradient id="a" x1="16" x2="16" y1="27.597" y2="4.403" gradientUnits="userSpaceOnUse"><stop offset="0" stop-color="#ff2d76"></stop><stop offset="1" stop-color="#fb0000"></stop></linearGradient><circle cx="16" cy="16" r="16" fill="#d3d3d3" opacity="1" data-original="#d3d3d3"></circle><circle cx="16" cy="16" r="13.809" fill="#ffffff" opacity="1" data-original="#ffffff"></circle><circle cx="16" cy="16" r="11.597" fill="url(#a)" opacity="1" data-original="url(#a)"></circle><path fill="#ffffff" d="M18.29 23.86H14.1s.006-1.243 0-2.096c-2.868.617-3.668-1.572-3.668-1.572-.524-1.048-1.048-1.572-1.048-1.572-1.048-.622 0-.524 0-.524 1.048 0 1.572 1.048 1.572 1.048.92 1.561 2.556 1.31 3.144 1.048 0-.524.23-1.316.524-1.572-2.289-.258-4.194-1.572-4.194-4.192s.526-3.144 1.05-3.668c-.106-.258-.544-1.213.016-2.62 0 0 1.03 0 2.078 1.572.519-.519 2.096-.524 2.62-.524.523 0 2.1.005 2.619.524 1.048-1.572 2.08-1.572 2.08-1.572.56 1.407.122 2.362.016 2.62.524.524 1.048 1.048 1.048 3.668s-1.903 3.934-4.192 4.192c.295.256.524 1.157.524 1.572z" opacity="1" data-original="#ffffff"></path></g></svg>