<svg xmlns="http://www.w3.org/2000/svg" version="1.1" xmlns:xlink="http://www.w3.org/1999/xlink" width="20" height="20" x="0" y="0" viewBox="0 0 24 24" style="enable-background:new 0 0 512 512" xml:space="preserve" class=""><g><path fill="#000000" d="M21 1H3a2 2 0 0 0-2 2v18a2 2 0 0 0 2 2h18a2 2 0 0 0 2-2V3a2 2 0 0 0-2-2zM8 19.5a.5.5 0 0 1-.5.5h-3a.5.5 0 0 1-.5-.5v-10a.5.5 0 0 1 .5-.5h3a.5.5 0 0 1 .5.5zM6 8a2 2 0 1 1 2-2 2 2 0 0 1-2 2zm14 11.5a.5.5 0 0 1-.5.5h-3a.5.5 0 0 1-.5-.5V14c0-1.25-.56-2-1.5-2s-1.5.75-1.5 2v5.5a.5.5 0 0 1-.5.5h-3a.5.5 0 0 1-.5-.5v-10a.5.5 0 0 1 .5-.5h3a.5.5 0 0 1 .5.5v.31A3.83 3.83 0 0 1 15.5 9c2.73 0 4.5 2 4.5 5z" opacity="1" data-original="#303c42" class=""></path></g></svg>