<svg xmlns="http://www.w3.org/2000/svg" version="1.1" xmlns:xlink="http://www.w3.org/1999/xlink" width="20" height="20" x="0" y="0" viewBox="0 0 512 512" style="enable-background:new 0 0 512 512" xml:space="preserve" class=""><g><path d="M377 260.346c-.597-1.997-1.506-3.756-2.728-5.276-1.223-1.52-2.743-2.742-4.561-3.667-1.819-.923-3.95-1.387-6.394-1.387-2.506 0-4.666.478-6.485 1.431-1.819.954-3.325 2.223-4.517 3.802-1.193 1.58-2.072 3.369-2.637 5.365a22.301 22.301 0 0 0-.851 6.127c0 2.146.297 4.218.895 6.215.594 1.998 1.489 3.77 2.682 5.32 1.193 1.552 2.697 2.803 4.517 3.758 1.818.954 3.979 1.431 6.484 1.431s4.681-.492 6.529-1.476c1.847-.983 3.352-2.264 4.517-3.844 1.162-1.579 2.025-3.383 2.593-5.412.565-2.027.85-4.083.85-6.171 0-2.147-.3-4.217-.894-6.216zM288.641 173.481c-1.074-1.162-2.146-1.745-3.22-1.745h-10.553v13.595h10.999c1.074 0 2.072-.596 2.997-1.789.923-1.192 1.387-2.863 1.387-5.008 0-2.205-.536-3.889-1.61-5.053zM230.067 181.978c-.597-1.997-1.508-3.756-2.728-5.276-1.223-1.52-2.743-2.742-4.561-3.667-1.819-.923-3.95-1.387-6.394-1.387-2.505 0-4.665.478-6.484 1.431-1.819.954-3.325 2.223-4.517 3.802-1.193 1.58-2.072 3.369-2.637 5.365a22.301 22.301 0 0 0-.851 6.127c0 2.146.297 4.218.895 6.215.593 1.998 1.488 3.77 2.681 5.321 1.193 1.552 2.697 2.803 4.517 3.758 1.818.954 3.979 1.431 6.484 1.431s4.681-.492 6.529-1.476c1.847-.983 3.352-2.264 4.517-3.844 1.162-1.579 2.025-3.383 2.593-5.411.565-2.027.851-4.083.851-6.171 0-2.149-.3-4.22-.895-6.218z" fill="#000000" opacity="1" data-original="#000000" class=""></path><path d="M476.44.001 35.557 0v469.332h42.664V512l21.333-14.222L120.887 512v-42.667h355.556L476.44.001zM313.681 156.534H367.698v15.202h-18.244v48.293h-17.439v-48.293h-18.334v-15.202zm-56.252 0h29.155c3.099 0 5.961.641 8.585 1.923 2.624 1.283 4.875 2.951 6.753 5.008 1.877 2.057 3.352 4.415 4.426 7.066 1.074 2.654 1.61 5.32 1.61 8.004 0 3.698-.804 7.141-2.414 10.33-1.61 3.19-3.846 5.798-6.709 7.825l13.416 23.341h-19.675l-11.18-19.497h-6.528v19.496h-17.439v-63.496zm-83.257 93.571h-26.113v10.553h21.285v14.131h-21.285v23.61H130.62v-63.497h43.553v15.203zm-.581-56.321c-1.819 2.057-4.023 3.698-6.618 4.918-2.593 1.222-5.44 1.833-8.54 1.833h-10.374v19.496H130.62v-63.497h27.365c3.1 0 5.961.641 8.586 1.923 2.623 1.283 4.874 2.951 6.751 5.008s3.354 4.415 4.426 7.066c1.074 2.654 1.61 5.32 1.61 8.004a22.75 22.75 0 0 1-1.519 8.183c-1.016 2.652-2.431 5.008-4.248 7.066zm66.49 85.161c-1.61 3.846-3.846 7.245-6.707 10.196s-6.275 5.32-10.24 7.11c-3.965 1.788-8.303 2.682-13.01 2.682-4.83 0-9.213-.923-13.147-2.772-3.935-1.847-7.305-4.277-10.105-7.289-2.803-3.009-4.979-6.453-6.528-10.33a31.944 31.944 0 0 1-2.325-11.984c0-4.173.804-8.198 2.414-12.072 1.61-3.873 3.86-7.286 6.753-10.239 2.89-2.951 6.318-5.305 10.283-7.066 3.965-1.758 8.303-2.638 13.012-2.638 4.83 0 9.212.924 13.146 2.772 3.937 1.849 7.303 4.292 10.106 7.333a32.935 32.935 0 0 1 6.484 10.374c1.519 3.876 2.281 7.841 2.281 11.894a30.88 30.88 0 0 1-2.417 12.029zm6.17-78.368c-1.61 3.846-3.846 7.245-6.707 10.196-2.862 2.951-6.275 5.32-10.24 7.11-3.965 1.788-8.303 2.682-13.012 2.682-4.828 0-9.212-.924-13.147-2.772s-7.305-4.277-10.105-7.289c-2.803-3.009-4.979-6.453-6.528-10.33a31.944 31.944 0 0 1-2.325-11.984 31.195 31.195 0 0 1 2.415-12.072c1.61-3.876 3.86-7.289 6.753-10.24 2.89-2.951 6.318-5.305 10.283-7.066 3.965-1.758 8.303-2.637 13.012-2.637 4.828 0 9.212.924 13.146 2.772 3.937 1.849 7.303 4.292 10.106 7.333a32.935 32.935 0 0 1 6.484 10.374c1.519 3.877 2.281 7.841 2.281 11.894a30.854 30.854 0 0 1-2.416 12.029zm51.245 97.821h-46.235v-63.495H268.7v48.293h28.796v15.202zm24.862 0h-17.439v-63.495h17.439v63.495zm70.827-19.452c-1.61 3.846-3.846 7.245-6.707 10.196s-6.275 5.32-10.24 7.11c-3.965 1.788-8.303 2.682-13.01 2.682-4.828 0-9.212-.923-13.147-2.772-3.935-1.847-7.305-4.277-10.105-7.289-2.803-3.009-4.979-6.453-6.528-10.33a31.944 31.944 0 0 1-2.325-11.984c0-4.173.804-8.198 2.414-12.072 1.61-3.876 3.86-7.289 6.753-10.24 2.89-2.951 6.318-5.305 10.283-7.066 3.965-1.758 8.303-2.638 13.012-2.638 4.83 0 9.212.924 13.146 2.772 3.937 1.85 7.303 4.294 10.108 7.334a32.935 32.935 0 0 1 6.484 10.374c1.519 3.876 2.28 7.841 2.28 11.894a30.896 30.896 0 0 1-2.418 12.029z" fill="#000000" opacity="1" data-original="#000000" class=""></path><path d="M160.043 173.168c-1.074-.954-2.146-1.432-3.22-1.432h-8.764v13.595h9.212c1.072 0 2.069-.492 2.995-1.476.923-.983 1.387-2.758 1.387-5.32 0-2.623-.537-4.412-1.61-5.367zM223.898 260.346c-.597-1.997-1.506-3.756-2.728-5.276-1.223-1.52-2.743-2.742-4.561-3.667-1.819-.923-3.949-1.387-6.394-1.387-2.505 0-4.665.478-6.484 1.431-1.819.954-3.325 2.223-4.517 3.802-1.193 1.58-2.072 3.369-2.638 5.365a22.301 22.301 0 0 0-.851 6.127c0 2.146.297 4.218.895 6.215.594 1.998 1.489 3.77 2.682 5.321 1.193 1.552 2.697 2.803 4.517 3.758 1.818.954 3.979 1.431 6.484 1.431s4.68-.492 6.529-1.476c1.847-.983 3.352-2.264 4.517-3.844 1.162-1.579 2.025-3.383 2.593-5.412.565-2.027.85-4.083.85-6.171a21.7 21.7 0 0 0-.894-6.217z" fill="#000000" opacity="1" data-original="#000000" class=""></path></g></svg>