<svg xmlns="http://www.w3.org/2000/svg" version="1.1" xmlns:xlink="http://www.w3.org/1999/xlink" width="25" height="25" x="0" y="0" viewBox="0 0 358 358" style="enable-background:new 0 0 512 512" xml:space="preserve" class=""><g><path d="m114.079 108.362 12.48 6.535c3.892 2.037 8.509.561 10.739-3.436l.066-.118c8.302-14.904 21.143-24.656 35.228-26.754a38.592 38.592 0 0 1 5.682-.419c8.378 0 16.657 2.706 23.366 7.746 7.568 5.686 12.427 13.931 13.681 23.217 3.455 25.569-17.554 42.282-34.434 55.711-2.157 1.716-4.195 3.337-6.127 4.932-14.103 11.642-20.783 26.749-20.423 46.185.036 1.945.88 3.757 2.314 4.971 1.321 1.117 2.958 1.594 4.615 1.351.223-.034.454-.059.674-.048l18.07.109c2.651-.539 4.679-2.991 4.977-6.068 1.942-20.069 15.006-30.672 27.641-40.926 2.703-2.194 5.499-4.462 8.128-6.784 21.466-18.958 30.333-39.776 27.107-63.645-4.3-31.811-25.694-53.42-57.229-57.806-27.888-3.876-64.935 8.078-80.357 43.496-1.91 4.382-.203 9.654 3.802 11.751zM169.346 262.92c-8.449 0-15.322 7.311-15.322 16.297v10.069c0 8.986 6.873 16.297 15.321 16.297 8.449 0 15.322-7.311 15.322-16.297v-10.069c0-8.986-6.873-16.297-15.321-16.297z" fill="#000000" opacity="1" data-original="#000000"></path></g></svg>