<svg xmlns="http://www.w3.org/2000/svg" version="1.1" xmlns:xlink="http://www.w3.org/1999/xlink" width="200" height="200" x="0" y="0" viewBox="0 0 24 24" style="enable-background:new 0 0 512 512" xml:space="preserve" class=""><g><g fill="#000" fill-rule="evenodd" clip-rule="evenodd"><path d="M12 2.75a9.25 9.25 0 1 0 0 18.5 9.25 9.25 0 0 0 0-18.5zM1.25 12C1.25 6.063 6.063 1.25 12 1.25S22.75 6.063 22.75 12 17.937 22.75 12 22.75 1.25 17.937 1.25 12z" fill="#000000" opacity="1" data-original="#000000" class=""></path><path d="M7.25 8A.75.75 0 0 1 8 7.25h8a.75.75 0 0 1 0 1.5H8A.75.75 0 0 1 7.25 8z" fill="#000000" opacity="1" data-original="#000000" class=""></path><path d="M12 7.25a.75.75 0 0 1 .75.75v9a.75.75 0 0 1-1.5 0V8a.75.75 0 0 1 .75-.75z" fill="#000000" opacity="1" data-original="#000000" class=""></path></g></g></svg>